#!OML:ASF X:\für Bonn\!DataBase\2005_08_11_Bastian_Final\c3d\Bastian.ASF
:FULLY-SPECIFIED
:DEGREES
186
root -0.0600172 16.7722 -1.97954 900.881 40.2042 -172.708
lowerback 17.9347 -6.2368 4.10774
upperback 15.1072 -5.09261 7.39097
thorax 6.85939 -1.53082 6.49077
lowerneck -24.1775 -10.5517 -17.7672
upperneck -3.89488 -9.79407 27.4176
head 5.48174 -2.7959 10.9996
rclavicle 9.62118e-014 6.99722e-014
rhumerus -31.5728 1.74237 -76.0315
rradius 32.9221
rwrist 3.00106
rhand -13.5557 10.2558
rfingers 7.12502
rthumb 12.5575 -19.3469
lclavicle 9.62118e-014 6.99722e-014
lhumerus -13.2057 -23.2261 98.4416
lradius 48.2478
lwrist 11.2474
lhand -15.3448 -13.0358
lfingers 7.12502
lthumb 10.8322 16.6648
rfemur -33.3667 -7.78666 23.9404
rtibia 51.2143
rfoot -6.59037 3.68604
rtoes -18.6886
lfemur 20.1518 -1.65865 -12.2068
ltibia 22.4509
lfoot -20.6936 -13.7051
ltoes -5.26524
187
root 0.043631 16.766 -2.03626 901.113 40.1438 -172.522
lowerback 17.9656 -6.26096 4.40016
upperback 15.0282 -5.07959 7.45782
thorax 6.72923 -1.50122 6.40082
lowerneck -24.2359 -10.4881 -17.6626
upperneck -3.89456 -9.7112 27.332
head 5.4572 -2.7543 10.9623
rclavicle -2.14687e-014 -7.63333e-014
rhumerus -31.4949 1.78567 -75.973
rradius 33.2335
rwrist 2.91573
rhand -13.5411 10.3034
rfingers 7.12502
rthumb 12.5716 -19.2983
lclavicle -2.14687e-014 -7.63333e-014
lhumerus -13.4989 -22.9922 98.4664
lradius 47.6365
lwrist 11.2209
lhand -15.278 -12.9992
lfingers 7.12502
lthumb 10.8966 16.6981
rfemur -33.2196 -7.89467 24.2541
rtibia 51.5564
rfoot -7.2233 3.62408
rtoes -18.5459
lfemur 20.2382 -1.99382 -12.0273
ltibia 22.7513
lfoot -20.5736 -13.3487
ltoes -6.22221
188
root 0.147439 16.7594 -2.09331 901.301 40.1 -172.399
lowerback 17.979 -6.27436 4.63926
upperback 14.9558 -5.0632 7.51136
thorax 6.6194 -1.47527 6.32432
lowerneck -24.3499 -10.4466 -17.5848
upperneck -3.84444 -9.65567 27.2549
head 5.46443 -2.72041 10.9293
rclavicle 1.35174e-014 5.56597e-014
rhumerus -31.3887 1.80455 -75.9015
rradius 33.5406
rwrist 2.82368
rhand -13.6092 10.3881
rfingers 7.12502
rthumb 12.5059 -19.2177
lclavicle 1.35174e-014 5.56597e-014
lhumerus -13.7478 -22.7558 98.4751
lradius 46.9715
lwrist 11.2592
lhand -15.2245 -13
lfingers 7.12502
lthumb 10.9482 16.6945
rfemur -33.09 -8.06691 24.5359
rtibia 51.8739
rfoot -7.77257 3.60429
rtoes -18.3724
lfemur 20.3055 -2.28615 -11.8956
ltibia 23.0794
lfoot -20.3111 -12.9922
ltoes -7.35975
189
root 0.251474 16.756 -2.14957 901.464 40.0745 -172.304
lowerback 18.0019 -6.28585 4.82381
upperback 14.8941 -5.05098 7.55087
thorax 6.52161 -1.45613 6.26393
lowerneck -24.5176 -10.3868 -17.4722
upperneck -3.77455 -9.57681 27.1708
head 5.47815 -2.6704 10.8921
rclavicle 3.10104e-014 1.11319e-013
rhumerus -31.1712 1.7789 -75.8438
rradius 33.7696
rwrist 2.73613
rhand -13.6179 10.5174
rfingers 7.12502
rthumb 12.4975 -19.0889
lclavicle 3.10104e-014 1.11319e-013
lhumerus -13.9702 -22.451 98.4513
lradius 46.2542
lwrist 11.3826
lhand -15.2253 -13.0259
lfingers 7.12502
lthumb 10.9474 16.6686
rfemur -32.9302 -8.22801 24.7967
rtibia 52.1408
rfoot -8.26345 3.58208
rtoes -18.0425
lfemur 20.3123 -2.55974 -11.7877
ltibia 23.4882
lfoot -19.849 -12.6299
ltoes -8.57016
190
root 0.35624 16.7583 -2.20709 901.656 40.044 -172.18
lowerback 18.008 -6.30678 5.01931
upperback 14.8243 -5.05206 7.60187
thorax 6.42511 -1.44407 6.21087
lowerneck -24.7404 -10.3329 -17.3597
upperneck -3.66902 -9.50375 27.0543
head 5.50854 -2.62042 10.8422
rclavicle 3.89618e-014 9.38264e-014
rhumerus -30.9126 1.78184 -75.7685
rradius 33.9566
rwrist 2.70719
rhand -13.657 10.686
rfingers 7.12502
rthumb 12.4599 -18.9226
lclavicle 3.89618e-014 9.38264e-014
lhumerus -14.1962 -22.0795 98.4347
lradius 45.5071
lwrist 11.5652
lhand -15.2313 -13.0428
lfingers 7.12502
lthumb 10.9417 16.6521
rfemur -32.7612 -8.43934 25.0993
rtibia 52.3599
rfoot -8.71806 3.56615
rtoes -17.8073
lfemur 20.2536 -2.80103 -11.6446
ltibia 23.985
lfoot -19.2567 -12.2373
ltoes -10.3322
191
root 0.461974 16.7667 -2.26442 901.859 40.0154 -172.055
lowerback 17.9957 -6.31344 5.21246
upperback 14.7593 -5.03776 7.64545
thorax 6.34171 -1.42447 6.14779
lowerneck -25.026 -10.2958 -17.2333
upperneck -3.50449 -9.4631 26.9622
head 5.57553 -2.57854 10.7948
rclavicle -7.31528e-014 7.95139e-015
rhumerus -30.6197 1.80916 -75.7315
rradius 34.1723
rwrist 2.604
rhand -13.6903 10.828
rfingers 7.12502
rthumb 12.4278 -18.7825
lclavicle -7.31528e-014 7.95139e-015
lhumerus -14.3759 -21.7401 98.3928
lradius 44.6809
lwrist 11.8286
lhand -15.3304 -13.0751
lfingers 7.12502
lthumb 10.8461 16.6248
rfemur -32.559 -8.63187 25.4082
rtibia 52.5064
rfoot -9.13698 3.51626
rtoes -17.3458
lfemur 20.0849 -2.99057 -11.4676
ltibia 24.6354
lfoot -18.5696 -11.9173
ltoes -12.5819
192
root 0.56789 16.7779 -2.32183 902.015 39.9957 -171.966
lowerback 17.9926 -6.32076 5.36806
upperback 14.7009 -5.02905 7.6738
thorax 6.26361 -1.41055 6.09
lowerneck -25.2497 -10.2312 -17.0539
upperneck -3.38679 -9.39562 26.802
head 5.60328 -2.53401 10.7151
rclavicle 1.43125e-014 -1.74931e-014
rhumerus -30.2785 1.80682 -75.6949
rradius 34.3381
rwrist 2.52908
rhand -13.7429 10.9831
rfingers 7.12502
rthumb 12.377 -18.6305
lclavicle 1.43125e-014 -1.74931e-014
lhumerus -14.5615 -21.4368 98.3107
lradius 43.8552
lwrist 12.2771
lhand -15.4482 -13.1354
lfingers 7.12502
lthumb 10.7325 16.5705
rfemur -32.3002 -8.80182 25.6833
rtibia 52.5891
rfoot -9.54283 3.45333
rtoes -16.8804
lfemur 19.8707 -3.12917 -11.2893
ltibia 25.4323
lfoot -17.85 -11.6965
ltoes -14.991
193
root 0.673917 16.7916 -2.37946 902.218 39.9765 -171.842
lowerback 17.9595 -6.33008 5.51087
upperback 14.6385 -5.02908 7.72194
thorax 6.20105 -1.40389 6.06072
lowerneck -25.4118 -10.1569 -16.9506
upperneck -3.29857 -9.30051 26.6969
head 5.61686 -2.47862 10.6752
rclavicle -1.43125e-014 -8.42847e-014
rhumerus -29.9301 1.90711 -75.683
rradius 34.5653
rwrist 2.44304
rhand -13.7764 11.0511
rfingers 7.12502
rthumb 12.3447 -18.5644
lclavicle -1.43125e-014 -8.42847e-014
lhumerus -14.7093 -21.1447 98.2227
lradius 42.9739
lwrist 12.7578
lhand -15.5817 -13.0928
lfingers 7.12502
lthumb 10.6036 16.6197
rfemur -32.0281 -8.91769 25.9844
rtibia 52.603
rfoot -9.88775 3.33537
rtoes -15.9976
lfemur 19.5252 -3.22338 -11.0415
ltibia 26.3998
lfoot -17.0548 -11.5914
ltoes -17.1924
194
root 0.778697 16.8062 -2.43651 902.39 39.9604 -171.748
lowerback 17.9304 -6.33432 5.65408
upperback 14.5733 -5.02445 7.7441
thorax 6.12945 -1.39457 6.00155
lowerneck -25.4466 -10.0773 -16.871
upperneck -3.28156 -9.19913 26.6069
head 5.59158 -2.43108 10.6445
rclavicle -1.58233e-013 1.82882e-013
rhumerus -29.5917 1.96709 -75.7021
rradius 34.781
rwrist 2.38114
rhand -13.8366 11.1422
rfingers 7.12502
rthumb 12.2866 -18.4768
lclavicle -1.58233e-013 1.82882e-013
lhumerus -14.8668 -20.9205 98.1047
lradius 42.084
lwrist 13.3416
lhand -15.7784 -13.0261
lfingers 7.12502
lthumb 10.4139 16.696
rfemur -31.7105 -9.01247 26.2531
rtibia 52.556
rfoot -10.1963 3.18391
rtoes -15.0696
lfemur 19.1098 -3.28466 -10.7919
ltibia 27.5145
lfoot -16.2356 -11.6086
ltoes -19.2465
195
root 0.883105 16.821 -2.49295 902.549 39.9254 -171.692
lowerback 17.8661 -6.33347 5.75117
upperback 14.5095 -5.02513 7.77387
thorax 6.08343 -1.39287 5.975
lowerneck -25.4706 -10.0006 -16.8112
upperneck -3.26723 -9.09814 26.5205
head 5.56544 -2.38466 10.6186
rclavicle -1.43125e-014 1.06549e-013
rhumerus -29.2453 1.9998 -75.6995
rradius 35.0229
rwrist 2.43634
rhand -13.8121 11.2201
rfingers 7.12502
rthumb 12.3103 -18.3976
lclavicle -1.43125e-014 1.06549e-013
lhumerus -15.0042 -20.7625 97.9836
lradius 41.1867
lwrist 14.0118
lhand -15.9274 -12.9272
lfingers 7.12502
lthumb 10.2702 16.802
rfemur -31.3759 -9.07626 26.4858
rtibia 52.4597
rfoot -10.4664 2.99352
rtoes -14.0061
lfemur 18.5864 -3.34093 -10.5449
ltibia 28.7694
lfoot -15.3013 -11.7196
ltoes -20.6507
196
root 0.986605 16.8361 -2.54976 902.708 39.9246 -171.598
lowerback 17.7991 -6.32597 5.8519
upperback 14.4595 -5.01544 7.81007
thorax 6.05472 -1.38481 5.95256
lowerneck -25.4684 -9.90848 -16.7384
upperneck -3.23839 -8.98609 26.3909
head 5.53227 -2.33834 10.5755
rclavicle 4.05521e-014 -1.59028e-015
rhumerus -28.8961 2.00934 -75.7005
rradius 35.2768
rwrist 2.52107
rhand -13.7499 11.2605
rfingers 7.12502
rthumb 12.3702 -18.3535
lclavicle 4.05521e-014 -1.59028e-015
lhumerus -15.125 -20.5995 97.8591
lradius 40.277
lwrist 14.6923
lhand -16.0236 -12.7394
lfingers 7.12502
lthumb 10.1774 16.9945
rfemur -30.9787 -9.07427 26.7365
rtibia 52.3194
rfoot -10.7412 2.80111
rtoes -12.9703
lfemur 18.0038 -3.31089 -10.2356
ltibia 30.1572
lfoot -14.3317 -11.889
ltoes -21.9326
197
root 1.08907 16.8514 -2.60535 902.841 39.8974 -171.506
lowerback 17.7394 -6.31839 5.98537
upperback 14.411 -5.00153 7.81257
thorax 6.01645 -1.37022 5.87419
lowerneck -25.3836 -9.81676 -16.6032
upperneck -3.29323 -8.88704 26.2705
head 5.46305 -2.30454 10.52
rclavicle 2.38542e-014 1.74931e-014
rhumerus -28.6389 1.99656 -75.7861
rradius 35.6533
rwrist 2.61187
rhand -13.6349 11.2547
rfingers 7.12502
rthumb 12.4811 -18.3526
lclavicle 2.38542e-014 1.74931e-014
lhumerus -15.2624 -20.6292 97.6643
lradius 39.404
lwrist 15.5195
lhand -16.0647 -12.4606
lfingers 7.12502
lthumb 10.1377 17.2752
rfemur -30.5323 -9.03594 26.9768
rtibia 52.1447
rfoot -11.0123 2.54781
rtoes -12.0793
lfemur 17.3562 -3.32221 -9.93328
ltibia 31.6667
lfoot -13.2684 -12.0364
ltoes -22.6126
198
root 1.19017 16.8677 -2.66073 902.933 39.8792 -171.478
lowerback 17.6467 -6.29651 6.05005
upperback 14.3788 -4.982 7.82917
thorax 6.02176 -1.35866 5.84736
lowerneck -25.3323 -9.73758 -16.5311
upperneck -3.31558 -8.78933 26.1282
head 5.40948 -2.27039 10.4684
rclavicle 2.06736e-014 -9.22361e-014
rhumerus -28.3382 1.96459 -75.8162
rradius 36.0209
rwrist 2.74634
rhand -13.4588 11.2514
rfingers 7.12502
rthumb 12.651 -18.3455
lclavicle 2.06736e-014 -9.22361e-014
lhumerus -15.3408 -20.6332 97.5091
lradius 38.5255
lwrist 16.2902
lhand -16.0468 -12.0613
lfingers 7.12502
lthumb 10.155 17.6736
rfemur -30.0793 -8.98321 27.157
rtibia 51.9348
rfoot -11.2572 2.30612
rtoes -11.3575
lfemur 16.6212 -3.37793 -9.73066
ltibia 33.2927
lfoot -12.1172 -12.0673
ltoes -23.1338
199
root 1.28977 16.8841 -2.71601 903.018 39.874 -171.418
lowerback 17.5722 -6.26303 6.16656
upperback 14.3404 -4.93938 7.82409
thorax 6.00152 -1.33045 5.7655
lowerneck -25.1883 -9.67743 -16.4504
upperneck -3.39926 -8.72529 26.0203
head 5.33448 -2.25836 10.4209
rclavicle 7.23576e-014 -1.11319e-014
rhumerus -28.1101 1.85731 -75.8916
rradius 36.451
rwrist 2.8933
rhand -13.2407 11.3188
rfingers 7.12502
rthumb 12.8611 -18.265
lclavicle 7.23576e-014 -1.11319e-014
lhumerus -15.4492 -20.686 97.3296
lradius 37.6483
lwrist 17.0433
lhand -15.964 -11.686
lfingers 7.12502
lthumb 10.2349 18.045
rfemur -29.5687 -8.87849 27.3556
rtibia 51.6863
rfoot -11.4932 2.04157
rtoes -10.8957
lfemur 15.8517 -3.42248 -9.51421
ltibia 34.999
lfoot -10.8656 -12.0697
ltoes -23.5808
200
root 1.38749 16.9028 -2.77076 903.099 39.8496 -171.354
lowerback 17.47 -6.22596 6.31789
upperback 14.3131 -4.89048 7.81004
thorax 6.00442 -1.29458 5.65234
lowerneck -25.0482 -9.62917 -16.3568
upperneck -3.46446 -8.68453 25.8782
head 5.26656 -2.25946 10.3543
rclavicle 1.74931e-014 -6.83819e-014
rhumerus -27.9124 1.72663 -75.9918
rradius 36.924
rwrist 3.08922
rhand -13.0561 11.4117
rfingers 7.12502
rthumb 13.0392 -18.1608
lclavicle 1.74931e-014 -6.83819e-014
lhumerus -15.5541 -20.9126 97.1347
lradius 36.8335
lwrist 17.8629
lhand -15.886 -11.2233
lfingers 7.12502
lthumb 10.3101 18.504
rfemur -29.0406 -8.81354 27.5659
rtibia 51.3973
rfoot -11.7406 1.77368
rtoes -10.6355
lfemur 14.9982 -3.45192 -9.30091
ltibia 36.7928
lfoot -9.51088 -12.0365
ltoes -24.4574
